#define iconify_pressed_width 12
#define iconify_pressed_height 12
static char iconify_pressed_bits[] = {
  0x00, 0x00, 0x00, 0x00, 0x00, 0x00, 0x00, 0x00, 0x00, 0x00, 0x00, 0x00, 
  0x00, 0x00, 0x00, 0x00, 0x00, 0x00, 0xFF, 0x0F, 0xFF, 0x0F, 0xFF, 0x0F, 
  };
