#define shade_toggled_width 12
#define shade_toggled_height 12
static char shade_toggled_bits[] = {
  0x00, 0x00, 0x00, 0x00, 0x00, 0x00, 0x00, 0x00, 0x00, 0x00, 0x00, 0x00, 
  0xFF, 0x0F, 0xFC, 0x03, 0xF8, 0x01, 0xF0, 0x00, 0x60, 0x00, 0x60, 0x00, 
  };
