#define shade_width 12
#define shade_height 12
static char shade_bits[] = {
  0x60, 0x00, 0x60, 0x00, 0xF0, 0x00, 0xF8, 0x01, 0xFC, 0x03, 0xFF, 0x0F, 
  0x00, 0x00, 0x00, 0x00, 0x00, 0x00, 0x00, 0x00, 0x00, 0x00, 0x00, 0x00, 
  };
