#define close_pressed_width 12
#define close_pressed_height 12
static char close_pressed_bits[] = {
  0x07, 0x0E, 0x07, 0x0E, 0x07, 0x0E, 0x98, 0x01, 0x98, 0x01, 0x60, 0x00, 
  0x60, 0x00, 0x98, 0x01, 0x98, 0x01, 0x07, 0x0E, 0x07, 0x0E, 0x07, 0x0E, 
  };
