#define desk_toggled_width 12
#define desk_toggled_height 12
static char desk_toggled_bits[] = {
  0xBF, 0x07, 0x31, 0x06, 0x31, 0x06, 0x19, 0x06, 0x8F, 0x07, 0x07, 0x03, 
  0x00, 0x04, 0x11, 0x06, 0x31, 0x06, 0xBF, 0x07, 0xDF, 0x07, 0x00, 0x00, 
  };
