#define desk_width 12
#define desk_height 12
static char desk_bits[] = {
  0x00, 0x00, 0x00, 0x00, 0x00, 0x00, 0x8E, 0x00, 0x86, 0x00, 0x00, 0x00, 
  0x00, 0x00, 0x86, 0x00, 0x8E, 0x00, 0x00, 0x00, 0x00, 0x00, 0x00, 0x00, 
  };
