#define max_toggled_hover_width 12
#define max_toggled_hover_height 12
static char max_toggled_hover_bits[] = {
  0xF8, 0x0F, 0xF8, 0x0F, 0xF8, 0x0F, 0x00, 0x0E, 0x00, 0x0E, 0x7F, 0x0E, 
  0x47, 0x0E, 0x47, 0x0E, 0x47, 0x0E, 0x7F, 0x00, 0x7F, 0x00, 0x7F, 0x00, 
  };
