#define max_pressed_width 12
#define max_pressed_height 12
static char max_pressed_bits[] = {
  0xFF, 0x0F, 0xFF, 0x0F, 0xFF, 0x0F, 0x07, 0x0E, 0x07, 0x0E, 0x07, 0x0E, 
  0x07, 0x0E, 0x07, 0x0E, 0x07, 0x0E, 0xFF, 0x0F, 0xFF, 0x0F, 0xFF, 0x0F, 
  };
